# Blender 3.3.1
# www.blender.org
o Car_Body
v 1.028696 0.299556 -2.740482
v 1.028696 -0.541605 -2.740482
v 1.028697 0.423999 1.908917
v 1.028697 -0.318846 2.217297
v 1.028696 0.338821 -1.403588
v 1.028696 -0.541605 -1.403588
v 1.028696 1.000000 -0.758469
v 1.028696 -0.541605 -0.758469
v 1.028697 1.000000 1.381422
v 1.028697 -0.541605 1.381423
v 1.028697 -0.541605 2.717020
v 1.028697 0.341363 2.717020
v 1.028696 -0.541605 -2.294851
v 1.028697 -0.541605 2.280298
v 1.028697 -0.161086 1.657038
v 1.028697 -0.161086 2.021768
v 1.028696 -0.360667 -1.462245
v 1.028697 -0.318846 1.444423
v 1.028696 -0.361566 -2.235884
v 1.028697 -0.177259 2.717020
v 1.028696 -0.177259 -2.740482
v -0.000000 0.299556 -2.740482
v 0.000000 0.423999 1.908917
v -0.000000 0.338821 -1.403588
v -0.000000 1.000000 -0.758469
v 0.000000 1.000000 1.381422
v 0.000000 0.341363 2.717020
v -0.000000 -0.541605 -2.740482
v -0.000000 -0.541605 -0.758469
v 0.000000 -0.541605 1.381422
v 0.000000 -0.541605 2.717020
v 0.000000 -0.541605 2.280298
v -0.000000 -0.121025 -2.740482
v 0.000000 -0.100121 2.717020
v 0.405369 -0.541605 -1.403588
v 0.405369 -0.541605 -0.758469
v 0.405369 -0.541605 1.381422
v 0.405369 -0.541605 2.717020
v 0.405369 -0.541605 -2.294851
v 0.405369 -0.320875 2.217297
v 0.405369 -0.541605 -2.740482
v 0.405369 -0.163114 2.022403
v 0.405369 -0.163114 1.657070
v 0.405369 -0.541605 2.280298
v 0.405369 -0.320875 1.444423
v 1.028696 -0.142463 -1.671634
v 1.028696 -0.142463 -2.026805
v 0.405369 -0.144950 -2.025610
v 0.405369 -0.144950 -1.672829
v 0.405369 -0.361919 -2.234160
v 0.405369 -0.361919 -1.464279
v 1.028696 0.330983 -1.670440
v -0.000000 0.330983 -1.670441
v -1.028697 0.299556 -2.740482
v -1.028697 -0.541605 -2.740482
v -1.028696 0.423999 1.908917
v -1.028696 -0.318846 2.217297
v -1.028697 0.338821 -1.403588
v -1.028697 -0.541605 -1.403588
v -1.028696 1.000000 -0.758468
v -1.028696 -0.541605 -0.758468
v -1.028696 1.000000 1.381422
v -1.028696 -0.541605 1.381423
v -1.028696 -0.541605 2.717020
v -1.028696 0.341363 2.717020
v -1.028697 -0.541605 -2.294851
v -1.028696 -0.541605 2.280298
v -1.028696 -0.161086 1.657038
v -1.028696 -0.161086 2.021768
v -1.028697 -0.360667 -1.462245
v -1.028696 -0.318846 1.444423
v -1.028697 -0.361566 -2.235884
v -1.028696 -0.177259 2.717020
v -1.028697 -0.177259 -2.740482
v -0.405369 -0.541605 -1.403588
v -0.405369 -0.541605 -0.758469
v -0.405369 -0.541605 1.381422
v -0.405369 -0.541605 2.717020
v -0.405369 -0.541605 -2.294851
v -0.405369 -0.320875 2.217297
v -0.405369 -0.541605 -2.740482
v -0.405369 -0.163114 2.022403
v -0.405369 -0.163114 1.657070
v -0.405369 -0.541605 2.280298
v -0.405369 -0.320875 1.444423
v -1.028697 -0.142463 -1.671634
v -1.028697 -0.142463 -2.026805
v -0.405369 -0.144950 -2.025610
v -0.405369 -0.144950 -1.672829
v -0.405369 -0.361919 -2.234160
v -0.405369 -0.361919 -1.464279
v -1.028697 0.330983 -1.670440
vn -0.0000 -0.0000 1.0000
vn -0.0000 -1.0000 -0.0000
vn 1.0000 -0.0000 -0.0000
vn -0.0000 0.6984 -0.7157
vn -0.0000 1.0000 -0.0000
vn 0.0004 -0.2733 0.9619
vn -0.0000 0.9948 0.1017
vn -0.0000 0.6754 0.7375
vn -0.0000 -0.0000 -1.0000
vn 0.0004 -0.2733 -0.9619
vn 0.0022 -0.7778 -0.6286
vn 0.0033 -1.0000 -0.0000
vn 0.0026 -0.8031 0.5958
vn 0.0014 -0.3156 0.9489
vn 0.0040 -1.0000 -0.0000
vn 0.0039 -0.6927 -0.7212
vn 0.0033 -0.6917 0.7222
vn 0.0019 -0.3142 -0.9494
vn -0.0000 0.9996 -0.0294
vn -1.0000 -0.0000 -0.0000
vn -0.0004 -0.2733 0.9619
vn -0.0004 -0.2733 -0.9619
vn -0.0022 -0.7778 -0.6286
vn -0.0033 -1.0000 -0.0000
vn -0.0026 -0.8031 0.5958
vn -0.0014 -0.3156 0.9489
vn -0.0040 -1.0000 -0.0000
vn -0.0039 -0.6927 -0.7212
vn -0.0033 -0.6917 0.7222
vn -0.0019 -0.3142 -0.9494
vt 0.625000 0.750000
vt 0.375000 0.750000
vt 0.875000 0.750000
vt 0.625000 1.000000
vt 0.125000 0.750000
vt 0.473193 1.000000
vt 0.706070 0.750000
vt 0.625000 0.831070
vt 0.293930 0.750000
vt 0.375000 0.831070
vt 0.790535 0.750000
vt 0.625000 0.915535
vt 0.209465 0.750000
vt 0.375000 0.915535
vt 0.853582 0.750000
vt 0.625000 0.978582
vt 0.146418 0.750000
vt 0.375000 0.978582
vt 0.125000 0.750000
vt 0.375000 0.000000
vt 0.375000 1.000000
vt 0.875000 0.750000
vt 0.625000 0.000000
vt 0.625000 1.000000
vt 0.375000 0.777023
vt 0.347977 0.750000
vt 0.375000 1.000000
vt 0.125000 0.750000
vt 0.142513 0.750000
vt 0.441838 0.985231
vt 0.133799 0.750000
vt 0.469331 1.000000
vt 0.302094 0.750000
vt 0.478457 0.831070
vt 0.146418 0.750000
vt 0.434086 0.978582
vt 0.339813 0.750000
vt 0.481628 0.777023
vt 0.478159 1.000000
vt 0.478159 0.000000
vt 0.483287 0.750000
vt 0.625000 0.625000
vt 0.875000 0.625000
vt 0.706070 0.625000
vt 0.790535 0.625000
vt 0.853582 0.625000
vt 0.875000 0.625000
vt 0.625000 0.125000
vt 0.375000 0.625000
vt 0.209465 0.625000
vt 0.146418 0.625000
vt 0.375000 0.125000
vt 0.125000 0.625000
vt 0.125000 0.625000
vt 0.500000 0.625000
vt 0.500000 0.125000
vt 0.293930 0.674258
vt 0.209465 0.674258
vt 0.146418 0.674258
vt 0.375000 0.075742
vt 0.125000 0.674258
vt 0.347977 0.674258
vt 0.125000 0.674258
vt 0.375000 0.674258
vt 0.133799 0.674258
vt 0.142513 0.674258
vt 0.125000 0.674258
vt 0.146418 0.674258
vt 0.310257 0.750000
vt 0.479407 0.814888
vt 0.480678 0.793205
vt 0.331650 0.750000
vt 0.331650 0.674258
vt 0.310257 0.674258
vt 0.339813 0.674258
vt 0.302094 0.674258
vt 0.625000 0.814888
vt 0.689888 0.750000
vt 0.689888 0.625000
vt 0.625000 0.750000
vt 0.375000 0.750000
vt 0.875000 0.750000
vt 0.625000 1.000000
vt 0.125000 0.750000
vt 0.473193 1.000000
vt 0.706070 0.750000
vt 0.625000 0.831070
vt 0.293930 0.750000
vt 0.375000 0.831070
vt 0.790535 0.750000
vt 0.625000 0.915535
vt 0.209465 0.750000
vt 0.375000 0.915535
vt 0.853582 0.750000
vt 0.625000 0.978582
vt 0.146418 0.750000
vt 0.375000 0.978582
vt 0.125000 0.750000
vt 0.375000 0.000000
vt 0.375000 1.000000
vt 0.875000 0.750000
vt 0.625000 0.000000
vt 0.625000 1.000000
vt 0.375000 0.777023
vt 0.347977 0.750000
vt 0.375000 1.000000
vt 0.125000 0.750000
vt 0.142513 0.750000
vt 0.441838 0.985231
vt 0.133799 0.750000
vt 0.469331 1.000000
vt 0.302094 0.750000
vt 0.478457 0.831070
vt 0.146418 0.750000
vt 0.434086 0.978582
vt 0.339813 0.750000
vt 0.481628 0.777023
vt 0.478159 1.000000
vt 0.478159 0.000000
vt 0.483287 0.750000
vt 0.293930 0.674258
vt 0.209465 0.674258
vt 0.146418 0.674258
vt 0.375000 0.075742
vt 0.125000 0.674258
vt 0.347977 0.674258
vt 0.125000 0.674258
vt 0.375000 0.674258
vt 0.133799 0.674258
vt 0.142513 0.674258
vt 0.125000 0.674258
vt 0.146418 0.674258
vt 0.310257 0.750000
vt 0.479407 0.814888
vt 0.480678 0.793205
vt 0.331650 0.750000
vt 0.331650 0.674258
vt 0.310257 0.674258
vt 0.339813 0.674258
vt 0.302094 0.674258
vt 0.625000 0.814888
vt 0.689888 0.750000
s 0
f 38/60/1 34/56/1 31/52/1
f 44/67/2 14/28/2 11/19/2 38/61/2
f 39/62/2 41/64/2 2/2/2 13/26/2
f 36/58/2 35/57/2 6/9/2 8/13/2
f 37/59/2 36/58/2 8/13/2 10/17/2
f 52/77/3 46/70/3 47/71/3 1/1/3
f 24/44/4 25/45/4 7/11/4 5/7/4
f 11/20/1 20/40/1 34/56/1 38/60/1
f 14/27/3 4/6/3 20/39/3 11/21/3
f 25/45/5 26/46/5 9/15/5 7/11/5
f 2/2/3 21/41/3 19/38/3 13/25/3
f 37/59/6 10/17/6 18/35/6 45/68/6
f 47/71/3 19/38/3 1/1/3
f 23/43/7 27/47/7 12/22/7 3/3/7
f 26/46/8 23/43/8 3/3/8 9/15/8
f 15/30/3 18/36/3 9/16/3
f 20/39/3 4/6/3 12/24/3
f 21/41/9 33/55/9 22/42/9 1/1/9
f 14/28/10 44/67/10 40/63/10 4/5/10
f 4/5/11 40/63/11 42/65/11 16/31/11
f 16/31/12 42/65/12 43/66/12 15/29/12
f 28/49/9 33/55/9 41/64/9
f 15/29/13 43/66/13 45/68/13 18/35/13
f 30/51/2 29/50/2 36/58/2 37/59/2
f 34/56/1 20/40/1 12/23/1 27/48/1
f 33/55/9 21/41/9 2/2/9 41/64/9
f 19/37/14 50/75/14 39/62/14 13/26/14
f 32/54/2 44/67/2 38/61/2 31/53/2
f 48/73/15 47/72/15 46/69/15 49/74/15
f 17/33/16 51/76/16 49/74/16 46/69/16
f 47/72/17 48/73/17 50/75/17 19/37/17
f 6/9/18 35/57/18 51/76/18 17/33/18
f 53/79/19 24/44/19 5/7/19 52/78/19
f 17/34/3 46/70/3 52/77/3 5/8/3
f 19/38/3 21/41/3 1/1/3
f 4/6/3 16/32/3 3/4/3 12/24/3
f 53/79/19 52/78/19 1/1/19 22/42/19
f 15/30/3 9/16/3 3/4/3 16/32/3
f 7/12/3 9/16/3 18/36/3 10/18/3
f 5/8/3 7/12/3 8/14/3
f 8/14/3 7/12/3 10/18/3
f 17/34/3 5/8/3 8/14/3 6/10/3
f 78/124/1 31/52/1 34/56/1
f 84/131/2 78/125/2 64/98/2 67/107/2
f 79/126/2 66/105/2 55/81/2 81/128/2
f 76/122/2 61/92/2 59/88/2 75/121/2
f 77/123/2 63/96/2 61/92/2 76/122/2
f 92/141/20 54/80/20 87/135/20 86/134/20
f 24/44/4 58/86/4 60/90/4 25/45/4
f 64/99/1 78/124/1 34/56/1 73/119/1
f 67/106/20 64/100/20 73/118/20 57/85/20
f 25/45/5 60/90/5 62/94/5 26/46/5
f 55/81/20 66/104/20 72/117/20 74/120/20
f 77/123/21 85/132/21 71/114/21 63/96/21
f 87/135/20 54/80/20 72/117/20
f 23/43/7 56/82/7 65/101/7 27/47/7
f 26/46/8 62/94/8 56/82/8 23/43/8
f 68/109/20 62/95/20 71/115/20
f 73/118/20 65/103/20 57/85/20
f 74/120/9 54/80/9 22/42/9 33/55/9
f 67/107/22 57/84/22 80/127/22 84/131/22
f 57/84/23 69/110/23 82/129/23 80/127/23
f 69/110/24 68/108/24 83/130/24 82/129/24
f 28/49/9 81/128/9 33/55/9
f 68/108/25 71/114/25 85/132/25 83/130/25
f 30/51/2 77/123/2 76/122/2 29/50/2
f 34/56/1 27/48/1 65/102/1 73/119/1
f 33/55/9 81/128/9 55/81/9 74/120/9
f 72/116/26 66/105/26 79/126/26 90/139/26
f 32/54/2 31/53/2 78/125/2 84/131/2
f 88/137/27 89/138/27 86/133/27 87/136/27
f 70/112/28 86/133/28 89/138/28 91/140/28
f 87/136/29 72/116/29 90/139/29 88/137/29
f 59/88/30 70/112/30 91/140/30 75/121/30
f 53/79/19 92/142/19 58/86/19 24/44/19
f 70/113/20 58/87/20 92/141/20 86/134/20
f 72/117/20 54/80/20 74/120/20
f 57/85/20 65/103/20 56/83/20 69/111/20
f 53/79/19 22/42/19 54/80/19 92/142/19
f 68/109/20 69/111/20 56/83/20 62/95/20
f 60/91/20 63/97/20 71/115/20 62/95/20
f 58/87/20 61/93/20 60/91/20
f 61/93/20 63/97/20 60/91/20
f 70/113/20 59/89/20 61/93/20 58/87/20
